<svg xmlns="http://www.w3.org/2000/svg" xmlns:xlink="http://www.w3.org/1999/xlink" version="1.1" x="150px" y="150px" viewBox="0 0 100 125" style="enable-background:new 0 0 100 100;" xml:space="preserve"><g><path d="M62.9,18.7c-4.6,0-9.1,1.5-12.9,4.5c-3.7-3-8.3-4.5-12.9-4.5c-5.3,0-10.6,2-14.6,6c-7.5,7.5-8,19.2-1.6,27.3   c0.5,0.6,1,1.3,1.6,1.9L50,78.3l27.4-24.5c0.6-0.6,1.1-1.2,1.6-1.9c2.9-3.7,4.4-8.2,4.4-12.7c0-5.3-2-10.6-6-14.6   C73.4,20.7,68.1,18.6,62.9,18.7z"/></g><text x="0" y="115" fill="#000000" font-size="5px" font-weight="bold" font-family="'Helvetica Neue', Helvetica, Arial-Unicode, Arial, Sans-serif">Created by Agni</text><text x="0" y="120" fill="#000000" font-size="5px" font-weight="bold" font-family="'Helvetica Neue', Helvetica, Arial-Unicode, Arial, Sans-serif">from the Noun Project</text></svg>